<svg id="Capa_1" enable-background="new 0 0 512 512" height="512" viewBox="0 0 512 512" width="512" xmlns="http://www.w3.org/2000/svg"><g id="XMLID_2160_"><path id="XMLID_2314_" d="m306.803 168h-252.803c-24.301 0-44 19.699-44 44h378.5c-18.104-27.468-48.8-44-81.697-44z" fill="#e67d97"/><path id="XMLID_2190_" d="m64 458h-54v-126.5l44.367-62.032c6.046-8.453 15.799-13.468 26.191-13.468h193.86c7.487 0 14.739 2.609 20.511 7.377l109.071 90.123h84c7.732 0 14 6.268 14 14v90.5h-98z" fill="#f2cd69"/><path id="XMLID_2189_" d="m58 353.5h283.202l-69.59-57.5h-173.043z" fill="#cbf4fb"/><path id="XMLID_2188_" d="m472 397.5h30v-30c0-7.732-6.268-14-14-14h-30v30c0 7.732 6.268 14 14 14z" fill="#e67d97"/><g id="XMLID_2608_"><circle id="XMLID_2581_" cx="108" cy="458" fill="#8690af" r="44"/></g><g id="XMLID_2182_"><circle id="XMLID_2187_" cx="360" cy="458" fill="#8690af" r="44"/></g><path id="XMLID_2167_" d="m502 90.552c0-44.488-36.065-80.552-80.552-80.552-28.804 0-54.062 15.13-68.302 37.865-7.883-5.015-17.231-7.932-27.266-7.932-28.1 0-50.88 22.78-50.88 50.88h226.993c.001-.087.007-.173.007-.261z" fill="#cbf4fb"/><g id="XMLID_1730_"><g id="XMLID_1739_"><path id="XMLID_1799_" d="m108 448c-2.63 0-5.21 1.069-7.07 2.93-1.86 1.86-2.93 4.44-2.93 7.07s1.07 5.21 2.93 7.069c1.86 1.86 4.44 2.931 7.07 2.931s5.21-1.07 7.07-2.931c1.86-1.859 2.93-4.439 2.93-7.069s-1.07-5.21-2.93-7.07c-1.86-1.861-4.44-2.93-7.07-2.93z"/><path id="XMLID_1784_" d="m360 448c-2.63 0-5.21 1.069-7.07 2.93-1.86 1.86-2.93 4.44-2.93 7.07s1.07 5.21 2.93 7.069c1.86 1.86 4.44 2.931 7.07 2.931s5.21-1.07 7.07-2.931c1.86-1.859 2.93-4.439 2.93-7.069s-1.07-5.21-2.93-7.07c-1.86-1.861-4.44-2.93-7.07-2.93z"/><path id="XMLID_1768_" d="m347.572 345.791-69.59-57.5c-1.792-1.48-4.044-2.291-6.37-2.291h-173.043c-3.25 0-6.297 1.579-8.171 4.235l-40.569 57.5c-2.153 3.052-2.426 7.05-.708 10.366 1.719 3.316 5.143 5.398 8.878 5.398h283.202c4.218 0 7.982-2.647 9.41-6.615 1.429-3.968.212-8.406-3.039-11.093zm-243.82-39.791h85.849v37.5h-112.307zm105.849 37.5v-37.5h58.414l45.384 37.5z"/><path id="XMLID_1767_" d="m199.601 387.5h-17.601c-5.523 0-10 4.478-10 10s4.477 10 10 10h17.601c5.523 0 10-4.478 10-10s-4.477-10-10-10z"/><path id="XMLID_1758_" d="m488 343.5h-30-50.403l-106.299-87.832c-7.19-5.941-16.197-9.331-25.498-9.638v-24.03h112.7c3.679 0 7.06-2.02 8.804-5.258 1.744-3.239 1.57-7.174-.455-10.245-20.014-30.367-53.677-48.497-90.046-48.497h-252.803c-29.776 0-54 24.225-54 54 0 5.523 4.477 10 10 10h78.369v24h-7.811c-13.587 0-26.419 6.598-34.325 17.65l-44.367 62.033c-1.214 1.697-1.866 3.731-1.866 5.817v126.5c0 5.522 4.477 10 10 10h44.943c4.705 25.012 26.698 44 53.057 44 26.358 0 48.352-18.988 53.057-44h145.887c4.705 25.012 26.698 44 53.057 44 26.358 0 48.352-18.988 53.057-44h88.942c5.523 0 10-4.478 10-10v-60.5-30c0-2.481-.378-4.876-1.081-7.129-3.043-9.763-12.166-16.871-22.919-16.871zm0 20c2.206 0 4 1.794 4 4v20h-20c-2.206 0-4-1.794-4-4v-20zm-120.835-161.5h-91.165v-24h30.803c22.773 0 44.243 8.727 60.362 24zm-313.165-24h34.569v24h-67.069c4.28-13.883 17.231-24 32.5-24zm54.369 44h28.631c5.523 0 10-4.477 10-10s-4.477-10-10-10h-28.431v-24h147.431v24h-29c-5.523 0-10 4.477-10 10s4.477 10 10 10h28.8v24h-147.431zm-.369 270c-18.748 0-34-15.252-34-34s15.252-34 34-34 34 15.252 34 34-15.252 34-34 34zm252 0c-18.748 0-34-15.252-34-34s15.252-34 34-34 34 15.252 34 34-15.252 34-34 34zm53.057-44c-4.705-25.012-26.698-44-53.057-44-26.358 0-48.352 18.988-53.057 44h-145.886c-4.705-25.012-26.698-44-53.057-44-26.358 0-48.352 18.988-53.057 44h-34.943v-113.292l42.5-59.423c4.16-5.813 10.91-9.285 18.058-9.285h193.86c5.149 0 10.172 1.807 14.141 5.086l109.071 90.123c1.793 1.48 4.044 2.291 6.37 2.291h44v20c0 13.233 10.766 24 24 24h20v40.5z"/><path id="XMLID_1749_" d="m275 100.813h226.993c5.449 0 9.884-4.359 9.997-9.788.006-.158.009-.315.009-.473.001-49.93-40.621-90.552-90.551-90.552-28.258 0-54.341 12.896-71.441 34.917-7.581-3.278-15.776-4.984-24.127-4.984-33.569 0-60.88 27.311-60.88 60.881 0 5.522 4.477 9.999 10 9.999zm50.88-50.88c7.776 0 15.348 2.202 21.898 6.369 2.248 1.43 4.972 1.903 7.573 1.316 2.599-.588 4.855-2.188 6.27-4.445 13.01-20.772 35.376-33.173 59.827-33.173 35.6 0 65.125 26.501 69.882 60.813h-205.093c4.473-17.722 20.551-30.88 39.643-30.88z"/><path id="XMLID_1744_" d="m106.666 90.813c0 5.522 4.477 10 10 10h98.667c5.523 0 10-4.478 10-10s-4.477-10-10-10h-98.667c-5.522 0-10 4.478-10 10z"/><path id="XMLID_1742_" d="m32.333 60h98.667c5.523 0 10-4.478 10-10s-4.477-10-10-10h-98.667c-5.523 0-10 4.478-10 10s4.477 10 10 10z"/><path id="XMLID_1741_" d="m182 202c-2.63 0-5.21 1.069-7.07 2.93-1.86 1.86-2.93 4.44-2.93 7.07s1.07 5.21 2.93 7.069c1.86 1.86 4.44 2.931 7.07 2.931s5.21-1.07 7.07-2.931c1.86-1.859 2.93-4.439 2.93-7.069s-1.07-5.21-2.93-7.07c-1.86-1.861-4.44-2.93-7.07-2.93z"/></g></g></g></svg>